<svg xmlns="http://www.w3.org/2000/svg" viewBox="0 0 999.99996 999.99996" height="1000" width="1000"><path d="M962.643 507.072V36.357H41.216l.15 470.56.152 470.562 460.562.154 460.563.154V507.072zM824.73 971.707c0-.505 130.537-757.24 131.787-763.985.362-1.953.595 137.16.638 380.725l.068 383.802h-66.247c-37.782 0-66.246-.233-66.246-.542zM46.637 904.19v-68.06l1.355.334c.745.184 169.922 30.684 375.948 67.778 206.026 37.094 374.864 67.549 375.195 67.677.331.128-168.846.254-375.948.28l-376.55.05V904.19zm715.294 55.346c-37.251-6.713-54.015-9.968-53.9-10.468.394-1.722 222.41-624.593 222.574-624.439.188.175-110.567 642.953-111.044 644.46-.175.552-.83.728-1.915.514-.907-.179-25.978-4.709-55.715-10.067zM653.694 928.59c-22.913-8.52-41.184-15.638-41.097-16.008.224-.96 276.826-490.37 277.027-490.164.093.095-41.603 117.407-92.657 260.695-51.054 143.288-93.087 261.27-93.406 262.184l-.58 1.661-4.017-1.513c-2.209-.833-22.58-8.417-45.27-16.855zm-289.598-40.718C190.984 856.694 49.263 831.11 49.16 831.02c-.151-.133 19.196-113.489 19.45-113.956.053-.097 604.346 224.463 610.98 227.046.682.265.701.363.08.4-.454.026-142.462-25.461-315.574-56.64zm207.76.694c-21.105-12.435-34.88-20.906-34.72-21.35.233-.651 300.846-367.04 303.062-369.374.482-.508-.467 1.43-2.108 4.307-1.64 2.877-53.585 94.805-115.432 204.284C660.81 815.913 609.664 906.4 609 907.515c-.665 1.116-1.423 1.947-1.684 1.846-.26-.1-16.218-9.458-35.46-20.795zm-244.275-81.2C187.14 755.158 72.064 712.268 71.86 712.053c-.32-.335 32.07-92.144 32.674-92.616.218-.171 477.588 281.338 479.3 282.648.803.614.803.664 0 .446-.497-.136-115.81-42.96-256.253-95.167zm177.99 32.984l-26.45-22.673 4.027-3.519c2.215-1.936 67.307-57.75 144.65-124.034C705.14 623.842 772.62 565.992 777.755 561.57c5.133-4.423 8.792-7.298 8.13-6.39-3.766 5.164-253.02 308.114-253.402 307.992-.255-.082-12.365-10.35-26.913-22.82zM306.896 732.276c-149.325-88.045-198.72-117.446-198.478-118.14.484-1.382 39.434-70.334 40.221-71.2.52-.574 42.655 35.234 180.146 153.093 98.707 84.612 180.01 154.416 180.672 155.12 1.092 1.16.974 1.142-1.279-.189-1.365-.806-91.942-54.214-201.282-118.684zm149.885 57.541c-10.28-12.516-18.69-22.9-18.69-23.074 0-.28 40.937-24.48 243.888-144.174 28-16.513 50.502-29.614 50.005-29.112-2.703 2.729-255.72 219.348-256.082 219.243-.237-.069-8.841-10.366-19.12-22.883zM46.637 426.466V41.895h66.612c53.028 0 66.558.157 66.347.77-.145.422-30.053 173.478-66.46 384.567-36.41 211.09-66.266 383.8-66.349 383.802-.083 0-.15-173.054-.15-384.568zm253.542 237.839c-79.33-67.961-144.879-124.19-145.665-124.953l-1.429-1.386 22.138-26.984c12.176-14.842 22.334-27.064 22.574-27.161.39-.158 256.133 310.815 257.462 313.063.3.508-2.017-1.313-5.149-4.045-3.132-2.733-70.6-60.573-149.93-128.534zm121.982 74.25c-6.554-11.608-11.815-21.196-11.693-21.309.475-.436 268.745-100.009 268.93-99.819.11.112-54.746 32.611-121.9 72.222-106.27 62.682-122.186 71.889-122.761 71.014-.364-.553-6.023-10.502-12.576-22.109zM308.954 609.845c-58.485-71.228-106.323-129.652-106.305-129.83.047-.469 45.182-38.95 45.382-38.69.091.118 37.774 66.807 83.738 148.198 45.965 81.39 84.125 148.952 84.8 150.136l1.229 2.154-1.253-1.23c-.69-.678-49.105-59.51-107.59-130.738zM401.13 691.4c-3.84-10.806-6.865-19.767-6.722-19.914.304-.31 237.835-43.155 238.055-42.939.081.08-50.19 18.864-111.715 41.743-61.525 22.878-112.037 41.408-112.249 41.177-.212-.23-3.528-9.26-7.369-20.067zm-77.823-127.832c-68.793-121.742-70.644-125.101-69.337-125.807.74-.399 10.534-6.15 21.766-12.782 11.233-6.631 20.473-11.986 20.533-11.9.06.087 21.596 60.52 47.855 134.296 26.26 73.776 48.397 135.923 49.194 138.104.797 2.181 1.273 3.787 1.06 3.568-.215-.219-32.196-56.685-71.07-125.48zm-194.13-197.512c30.553-177.104 55.58-322.052 55.613-322.107.11-.18 111.217 19.935 111.431 20.173.276.307-222.095 624.453-222.377 624.164-.12-.123 24.779-145.127 55.333-322.23zm260.912 282.076c-1.683-9.73-2.997-17.76-2.92-17.846.076-.085 45.734-.085 101.46 0l101.322.156-97.459 17.618c-53.602 9.69-97.883 17.65-98.4 17.69-.77.059-1.502-3.163-4.003-17.618zM341.952 525.26c-22.295-62.59-40.451-113.885-40.347-113.992.104-.106 8.973-3.484 19.708-7.506l19.518-7.313.47 1.626c.35 1.21 40.005 230.492 41.679 240.982.162 1.016.118 1.431-.098.923-.216-.507-18.634-52.132-40.93-114.72zm281.098-3.881c.038-56.77.173-102.804.299-102.296.125.508 7.816 44.949 17.09 98.758 9.274 53.809 16.99 98.405 17.149 99.103.273 1.204-.568 1.425-16.709 4.384-9.348 1.714-17.2 3.15-17.448 3.193-.248.042-.42-46.372-.381-103.142zm-34.983 102.45c.01-.424 6.625-38.842 14.702-85.375l14.685-84.606.053 85.375.053 85.375h-14.755c-11.412 0-14.751-.175-14.738-.77zM386.902 609.52c0-8.291.068-15.067.15-15.057.083.01 37.415 6.769 82.959 15.021l82.808 15.004-82.959.053-82.958.054v-15.075zm183.147 12.32c-6.423-1.174-11.752-2.211-11.843-2.305-.09-.093 10.703-30.691 23.985-67.996 13.283-37.304 24.219-67.756 24.303-67.67.084.086-5.251 31.436-11.856 69.668-6.605 38.232-12.008 69.722-12.008 69.978 0 .646.396.699-12.581-1.674zm-26.865-7.484c-5.694-2.105-9.32-3.761-9.213-4.207.212-.874 57.931-103.039 58.11-102.857.142.145-39.185 110.535-39.378 110.535-.07 0-4.354-1.562-9.519-3.471zm98.948-118.412c-11.494-66.472-20.831-121.104-20.75-121.404.12-.445 80.958 225.78 81.293 227.501.11.562-38.048 15.12-39.044 14.897-.331-.074-10.006-54.521-21.5-120.994zm-186.45 105.329c-37.194-6.717-67.757-12.346-67.918-12.51-.16-.164.665-5.794 1.833-12.51 1.167-6.718 2.123-12.252 2.123-12.297 0-.132 130.263 48.288 131.59 48.913.662.312.933.579.601.592-.33.014-31.034-5.471-68.229-12.188zm65.766 2.612c-4.357-2.577-6.817-4.389-6.632-4.882.258-.687 59.178-72.793 60.79-74.396.341-.338.217.077-.276.923-.493.846-11.17 19.744-23.726 41.995-12.557 22.252-22.92 40.457-23.03 40.457-.109 0-3.316-1.844-7.126-4.097zm186.168-4.363c-.438-1.155-95.637-268.313-97.075-272.425-.473-1.35-.613-2.18-.313-1.845 1.07 1.191 140.612 248.594 140.669 249.4.048.665-41.128 25.773-42.485 25.908-.213.02-.571-.446-.796-1.038zM443.33 577.205c-27.096-10.068-49.385-18.428-49.531-18.578-.226-.23 6.17-18.857 6.68-19.458.19-.223 99.55 58.183 100.546 59.104.712.657 4.233 1.943-57.695-21.068zm-79.604-81.815c-9.423-54.65-16.939-99.536-16.702-99.745.418-.37 32.195-6.13 33.704-6.108.6.008.739 21.092.683 103.536-.039 56.94-.179 103.111-.311 102.604-.133-.508-7.951-45.637-17.374-100.287zm140.31 95.859c-2.484-2.118-4.5-3.996-4.48-4.173.03-.257 38.06-32.94 55.864-48.008 3.719-3.147 3.307-2.544-5.878 8.614-5.433 6.6-16.526 20.106-24.652 30.015-8.978 10.948-15.08 17.896-15.555 17.71-.43-.169-2.814-2.04-5.298-4.158zm-389.175-1.264c.436-1.1 42.513-119.19 93.506-262.422 50.993-143.232 92.952-260.426 93.241-260.43.29-.006 20.812 7.525 45.604 16.736 43.63 16.208 45.053 16.786 44.298 17.998-.429.688-62.926 111.247-138.883 245.685-75.956 134.438-138.204 244.433-138.33 244.433-.124 0 .13-.9.564-2zM492 578.685c-1.86-2.24-3.299-4.153-3.2-4.252.1-.099 10.615-6.33 23.368-13.845 12.752-7.516 24.812-14.63 26.8-15.81 1.987-1.179 3.428-1.95 3.202-1.713-1.328 1.395-46.035 39.62-46.376 39.652-.227.02-1.935-1.794-3.794-4.033zm-49.09-21.156c-21.364-12.582-39.052-23.078-39.306-23.325-.532-.516 7.437-14.913 8.123-14.675.627.217 72.738 62.06 72.738 62.38 0 .143-.61-.138-1.355-.622-.746-.485-18.835-11.176-40.2-23.758zm229.977-132.617c-91.005-161.037-87.086-154.071-86.203-153.198.342.339 48.894 59.411 107.892 131.272l107.27 130.656-5.571 4.797c-31.92 27.482-39.367 33.781-39.794 33.66-.273-.079-37.89-66.312-83.594-147.187zM483.233 565.785c-1.05-1.875-1.812-3.481-1.694-3.571.509-.385 44.077-16.379 44.218-16.232.302.314-39.792 23.716-40.201 23.465-.229-.14-1.274-1.788-2.323-3.662zm-40.071-26.824l-28.355-24.28 4.38-5.35 4.379-5.352 21.83 26.62c12.005 14.642 23.333 28.42 25.17 30.62 1.84 2.2 2.805 3.555 2.147 3.01-.658-.543-13.956-11.914-29.551-25.268zm-56.26-65.424v-84.605h14.825c13.818 0 14.807.073 14.562 1.076-.145.593-6.745 38.665-14.668 84.606-7.922 45.94-14.475 83.529-14.562 83.529-.086 0-.157-38.073-.157-84.606zm91.076 80.414c-.476-1.46-.766-2.755-.645-2.879.29-.296 34.416-6.483 34.62-6.276.305.312-31.418 12.043-32.256 11.927-.47-.065-1.243-1.313-1.72-2.772zm-31.413-30.573c-10.283-12.522-18.7-22.94-18.704-23.153-.006-.212 1.823-1.923 4.058-3.801 3.52-2.957 4.14-3.277 4.622-2.383.307.568 7.046 12.523 14.977 26.568 16.562 29.328 15.253 26.95 14.4 26.15-.361-.338-9.07-10.86-19.353-23.381zm28.468 17.738c.123-.126 5.75-.153 12.506-.061l12.283.167-12.045 2.154-12.045 2.155-.46-2.094c-.255-1.151-.362-2.196-.24-2.321zm-.806-34.044v-28.305h55.406V535.376h-55.406v-28.304zm60.887 13.69l.06-13.998 1.992 11.076c3.079 17.129 2.998 16.166 1.38 16.483-3.767.736-3.499 1.795-3.432-13.56zm9.888 10.153c-.89-3.947-5.762-33.249-5.563-33.452.187-.192 3.272 8.283 11.7 32.142.23.65-3.481 2.594-5.084 2.663-.408.017-.881-.591-1.053-1.353zm-93.344-21.074a16166.757 16166.757 0 0 1-10.933-19.468c-.117-.216 1.42-1.387 3.416-2.601l3.627-2.208.642 1.678c1.448 3.784 15.579 43.507 15.579 43.792 0 .632-1.866-2.574-12.331-21.193zm227.298-134.446a5728326.084 5728326.084 0 0 1-128.794-156.89c-2.329-2.84-1.296-2.11 6.571 4.647 11.244 9.655 294.106 252.052 294.401 252.286.114.09-9.913 12.488-22.282 27.553-17.112 20.84-22.655 27.214-23.178 26.657-.378-.403-57.401-69.817-126.718-154.253zm-269.221 84.093c6.596-38.184 12.084-69.512 12.195-69.619.112-.106 5.656.791 12.32 1.995l12.118 2.188-1.67 4.67c-.917 2.568-11.79 33.09-24.161 67.827-12.372 34.737-22.562 62.98-22.645 62.76-.083-.218 5.246-31.638 11.843-69.821zm138.641 46.259c-4.355-12.235-7.83-22.336-7.723-22.447.265-.27 22.705 39.433 22.705 40.17 0 .508-5.715 4.322-6.693 4.467-.203.03-3.933-9.955-8.289-22.19zm5.643-10.366c-7.534-13.368-14.228-25.205-14.875-26.305-.648-1.1-1.045-2-.882-2 .236 0 34.65 41.742 37.6 45.606.655.858.2 1.466-3.312 4.422-2.24 1.886-4.244 3.238-4.453 3.005-.21-.233-6.545-11.36-14.078-24.728zm-100.64-10.833c-.277-1.132.092-1.47 2.534-2.32 1.573-.548 2.925-.927 3.006-.844.178.186 6.285 35.393 6.246 36.013-.032.522-11.308-30.907-11.785-32.849zM164.21 514.917c.483-.761 52.723-93.174 116.088-205.36 63.366-112.188 115.51-204.296 115.875-204.685.497-.528 9.627 4.592 35.897 20.13 19.377 11.46 35.167 21.113 35.088 21.45-.15.645-303.226 369.849-303.606 369.85-.12 0 .176-.624.658-1.385zm391.887-35.12c-13.291-16.184-24.073-29.508-23.96-29.607.319-.28 56.816 48.376 56.816 48.93 0 .749-7.768 10.367-8.26 10.227-.237-.067-11.306-13.364-24.596-29.55zM431.75 451.073c10.768-30.222 19.65-55.013 19.735-55.09.086-.078 4.357 1.439 9.491 3.37 6.671 2.51 9.278 3.763 9.134 4.391-.24 1.054-57.543 102.639-57.777 102.426-.089-.081 8.648-24.875 19.417-55.097zm32.855 29.762c-.012-1.05.41-1.367 2.093-1.568l2.107-.252-.054 12.952-.055 12.952-2.038-11.383c-1.12-6.261-2.044-11.976-2.053-12.7zm55.39-48.67c-.798-.82-.728-.82.603.007.828.514 19.257 11.385 40.952 24.158a44297.686 44297.686 0 0 1 39.556 23.302c.06.043-1.78 3.448-4.09 7.567l-4.2 7.49-35.958-30.797c-19.778-16.939-36.365-31.215-36.862-31.726zm-90.22 54.449c.471-.762 10.973-19.313 23.337-41.225l22.48-39.84 1.877 1.153c1.032.635 4.11 2.457 6.84 4.05 2.73 1.592 5.095 3.113 5.256 3.379.287.474-59.627 73.867-60.301 73.867-.19 0 .04-.623.511-1.384zm18.394-12.614c1.633-1.946 12.265-14.89 23.625-28.766 11.36-13.876 21.136-25.748 21.725-26.384 1.04-1.124 1.216-1.03 6.24 3.292l5.17 4.448-5.565 4.788c-26.516 22.815-53.783 46.136-53.955 46.147-.116.007 1.126-1.58 2.76-3.525zm105.211-28.847c-27.328-16.12-49.592-29.405-49.476-29.524.156-.159 81.45 29.826 104.095 38.395l2.787 1.055-3.389 9.686c-1.864 5.328-3.6 9.689-3.86 9.691-.258.002-22.829-13.184-50.157-29.303zm-50.548 27.75c2.04-.777 25.276-4.543 25.619-4.151.23.263.584 1.379.785 2.479l.366 2-13.686-.049c-7.528-.027-13.415-.152-13.084-.278zm165.315-161.47c-94.898-81.319-173.084-148.421-173.746-149.117l-1.205-1.264 1.506.92c.828.504 91.548 54.021 201.599 118.926l200.094 118.008-1.957 3.522c-1.077 1.937-10.344 18.352-20.596 36.478l-18.638 32.957-7.258-6.288c-3.992-3.458-84.901-72.822-179.8-154.141zm-205.342 158.51c6.619-6.203 45.97-39.166 46.288-38.776.239.291 1.833 2.22 3.543 4.285l3.109 3.754-26.632 15.75c-14.647 8.663-26.757 15.765-26.91 15.782-.154.017.117-.34.602-.795zm44.544-6.807c8.446-3.151 15.908-5.907 16.582-6.124 1.034-.332 1.389.055 2.265 2.47.571 1.576.91 2.997.752 3.159-.368.376-31.453 6.12-33.45 6.18-.829.025 5.404-2.533 13.85-5.685zm-29.179 4.656c.654-.59 39.744-23.587 40.3-23.709.2-.044 1.288 1.595 2.417 3.641l2.052 3.721-22.4 8.38c-24.553 9.185-23.174 8.694-22.369 7.967zm-259.82-9.164c1.23-1.585 251.71-306.768 252.532-307.682.557-.62 6.287 3.999 27.318 22.017 14.638 12.54 26.596 23 26.573 23.243-.036.397-306.486 263.351-307.024 263.447-.124.023.147-.439.602-1.025zm327.241-33.724c-36.767-13.714-66.036-24.792-65.042-24.619.994.173 31.837 5.72 68.541 12.325 36.704 6.606 67.008 12.01 67.341 12.01.334 0 .475.485.315 1.078-.161.592-1.17 6.268-2.244 12.613-1.074 6.346-1.977 11.535-2.007 11.532-.03-.003-30.137-11.226-66.904-24.94zm-272.798-5.132c.654-.636 57.829-49.68 127.056-108.988 69.228-59.306 126.447-108.368 127.154-109.025l1.287-1.195 18.731 22.787c10.302 12.533 18.802 23.056 18.889 23.385.121.462-292.807 173.965-294.02 174.15-.156.023.25-.478.903-1.114zm261.445-15.459c-45.097-8.123-82.4-14.875-82.897-15.004-.497-.128 36.699-.266 82.657-.305l83.56-.071v15.075c0 10.565-.198 15.075-.663 15.075-.365 0-37.56-6.647-82.657-14.77zM327.28 394.58c43.95-26.157 240.559-141.796 241.184-141.856.54-.052 5.51 8.13 13.215 21.76 10.547 18.659 12.197 21.913 11.317 22.319-2.022.931-268.437 100.025-269.028 100.065-.331.023 1.16-1.006 3.312-2.288zm331.99-141.941c-131.91-77.786-239.757-141.51-239.658-141.61.256-.263 511.907 189.992 512.564 190.594.57.522-32.076 92.939-32.717 92.62-.194-.097-108.279-63.819-240.19-141.604zm-285.617 131.71c1.159-.444 50.889-18.955 110.51-41.136 59.622-22.181 109.12-40.61 109.995-40.952l1.592-.622 7.04 19.803c3.872 10.892 7.086 20.058 7.141 20.369.088.495-234.071 43.264-237.182 43.32-.712.014-.343-.306.904-.783zm42.458-1.282c.617-.237 190.935-34.507 193.583-34.858 1.465-.194 1.474-.16 4.34 16.419 1.579 9.137 2.883 17.098 2.897 17.69.025 1.022-5.144 1.074-100.698 1.028-55.399-.026-100.454-.152-100.122-.28zm212.761-200.327C461.032 120.335 323.902 69.213 324.14 69.135c.581-.19 630.568 113.346 630.88 113.697.137.153-4.175 25.751-9.58 56.886-5.406 31.135-9.844 56.708-9.863 56.829-.019.12-.373.092-.787-.063-.414-.155-138.076-51.34-305.917-113.745zm-46.417-72.855c-205.764-37.059-374.524-67.485-375.02-67.613-.497-.128 168.002-.265 374.442-.305l375.346-.071v67.684c0 37.227-.147 67.685-.326 67.685-.178 0-168.677-30.321-374.442-67.38z" fill="#222"/></svg>